<svg xmlns:x="http://ns.adobe.com/Extensibility/1.0/" xmlns:i="http://ns.adobe.com/AdobeIllustrator/10.0/" xmlns:graph="http://ns.adobe.com/Graphs/1.0/" xmlns="http://www.w3.org/2000/svg" xmlns:xlink="http://www.w3.org/1999/xlink" xmlns:a="http://ns.adobe.com/AdobeSVGViewerExtensions/3.0/" version="1.1" id="圖層_1" x="0" y="0" viewBox="0 0 244.06 137.94" xml:space="preserve" enable-background="new 0 0 244.055 137.944"><rect x="0" y="0" width="244.06" height="137.94" fill="#E40F00"/><path d="M52.56 50.98V26.27h-8.82v-5.04h23.64v5.04h-8.81v24.71H52.56z" fill="#FFF"/><path d="M94.99 50.98h-6.54l-2.6-6.76H73.97l-2.46 6.77h-6.37l11.58-29.75h6.36L94.99 50.98zM83.94 39.21l-4.11-11.04 -4.01 11.04H83.94z" fill="#FFF"/><path d="M98 50.98v-29.75h6.01v29.75H98z" fill="#FFF"/><path d="M113.94 50.98l-7.1-29.75h6.14l4.49 20.43 5.44-20.43h7.15l5.22 20.78 4.56-20.78h6.05l-7.23 29.75h-6.37l-5.93-22.24 -5.9 22.24H113.94z" fill="#FFF"/><path d="M173.47 50.98h-6.53l-2.6-6.76h-11.89l-2.45 6.77h-6.37l11.57-29.75h6.36L173.47 50.98zM162.43 39.21l-4.11-11.04 -4.02 11.04H162.43z" fill="#FFF"/><path d="M176.72 50.98v-29.75h5.84l12.18 19.86V21.23h5.58v29.75h-6.02L182.3 31.57v19.41H176.72z" fill="#FFF"/><path d="M75.58 77.47v-5h12.94v11.84c-1.26 1.22-3.08 2.29-5.46 3.22 -2.39 0.92-4.81 1.39-7.25 1.39 -3.11 0-5.83-0.66-8.14-1.96 -2.31-1.3-4.05-3.16-5.21-5.6 -1.16-2.42-1.75-5.06-1.75-7.93 0-3.09 0.65-5.84 1.95-8.25 1.29-2.41 3.2-4.26 5.7-5.54 1.9-0.98 4.27-1.48 7.12-1.48 3.69 0 6.57 0.78 8.66 2.32 2.07 1.54 3.41 3.7 4 6.43l-5.96 1.11c-0.42-1.46-1.21-2.61-2.36-3.46 -1.16-0.84-2.61-1.27-4.33-1.27 -2.62 0-4.72 0.84-6.26 2.5 -1.55 1.65-2.32 4.13-2.32 7.4 0 3.53 0.78 6.19 2.35 7.94 1.58 1.77 3.63 2.66 6.17 2.66 1.27 0 2.53-0.25 3.79-0.74 1.27-0.49 2.35-1.09 3.26-1.8v-3.77H75.58z" fill="#FFF"/><path d="M118.72 62.23c-2.79-2.72-6.52-4.08-11.17-4.08 -2.58 0-4.85 0.4-6.82 1.18 -1.47 0.59-2.84 1.47-4.08 2.67 -1.24 1.21-2.23 2.57-2.94 4.08 -0.96 2.06-1.44 4.6-1.44 7.64 0 4.73 1.38 8.44 4.16 11.15 2.78 2.69 6.51 4.05 11.21 4.05 2.44 0 4.61-0.38 6.54-1.13 -2.05-0.91-3.59-2.31-4.67-4.19 -0.6 0.12-1.23 0.19-1.88 0.19 -2.55 0-4.64-0.87-6.3-2.62 -1.65-1.74-2.48-4.29-2.48-7.65 0-3.42 0.8-5.98 2.41-7.7 1.62-1.69 3.73-2.54 6.37-2.54 2.63 0 4.74 0.84 6.33 2.51 1.58 1.69 2.38 4.23 2.38 7.63 0 1.89-0.25 3.51-0.74 4.89 0.8 2 2.18 3.47 4.98 4.35 1.4-2.37 2.36-5.66 2.36-9.07C122.92 68.73 121.53 64.95 118.72 62.23z" fill="#FFF"/><path d="M133.77 62.23c-2.8-2.72-6.53-4.08-11.18-4.08 -2.36 0-5.04 0.48-6.9 1.13 1.94 0.52 3.94 2.53 4.83 4.23 0.67-0.14 1.38-0.22 2.13-0.22 2.63 0 4.74 0.84 6.33 2.51 1.59 1.69 2.38 4.23 2.38 7.63 0 3.46-0.81 6.05-2.44 7.77 -1.64 1.73-3.72 2.6-6.27 2.6 -2.54 0-4.64-0.87-6.3-2.62 -1.65-1.74-2.48-4.29-2.48-7.65 0-2.08 0.3-3.83 0.89-5.28 -1.02-1.7-2.01-3.79-5.07-3.81 -0.36 0.53-0.68 1.08-0.96 1.65 -0.97 2.06-1.45 4.6-1.45 7.64 0 4.73 1.39 8.44 4.17 11.15 2.78 2.69 6.52 4.05 11.22 4.05 4.64 0 8.36-1.35 11.12-4.08 2.77-2.7 4.16-6.45 4.16-11.25C137.96 68.73 136.57 64.95 133.77 62.23z" fill="#FFF"/><path d="M141.4 58.66h10.98c2.47 0 4.36 0.18 5.66 0.56 1.74 0.52 3.22 1.43 4.48 2.74 1.25 1.3 2.19 2.92 2.84 4.81 0.66 1.9 0.97 4.25 0.97 7.03 0 2.46-0.3 4.57-0.91 6.33 -0.74 2.17-1.81 3.93-3.2 5.27 -1.03 1.02-2.44 1.81-4.21 2.37 -1.32 0.42-3.09 0.63-5.31 0.63h-11.29V58.66zM147.4 63.69v19.69h4.48c1.68 0 2.9-0.08 3.64-0.28 0.97-0.24 1.78-0.66 2.42-1.23 0.65-0.59 1.17-1.54 1.58-2.87 0.41-1.33 0.61-3.15 0.61-5.45 0-2.3-0.2-4.07-0.61-5.3 -0.41-1.24-0.97-2.19-1.7-2.87 -0.73-0.69-1.66-1.16-2.79-1.4 -0.84-0.18-2.48-0.29-4.92-0.29H147.4z" fill="#FFF"/><path d="M169.81 78.72l5.83-0.57c0.36 1.96 1.08 3.41 2.14 4.33 1.09 0.91 2.54 1.38 4.36 1.38 1.94 0 3.4-0.4 4.38-1.23 0.97-0.81 1.46-1.77 1.46-2.87 0-0.69-0.2-1.3-0.61-1.78 -0.42-0.5-1.14-0.93-2.17-1.29 -0.69-0.25-2.3-0.68-4.81-1.3 -3.21-0.79-5.47-1.77-6.76-2.94 -1.83-1.63-2.74-3.63-2.74-5.97 0-1.52 0.43-2.95 1.29-4.26 0.85-1.32 2.08-2.32 3.71-3.02 1.6-0.68 3.57-1.03 5.84-1.03 3.73 0 6.55 0.83 8.43 2.47 1.9 1.63 2.89 3.82 2.98 6.55l-6.01 0.26c-0.25-1.52-0.8-2.62-1.65-3.29 -0.85-0.68-2.1-1.02-3.81-1.02 -1.73 0-3.11 0.37-4.09 1.09 -0.64 0.45-0.96 1.08-0.96 1.84 0 0.71 0.3 1.31 0.9 1.81 0.76 0.63 2.59 1.28 5.52 1.98 2.92 0.71 5.08 1.41 6.49 2.14 1.39 0.74 2.48 1.75 3.28 3.03 0.79 1.28 1.19 2.86 1.19 4.74 0 1.7-0.47 3.29-1.43 4.79 -0.94 1.5-2.28 2.59-4.01 3.32 -1.74 0.73-3.89 1.09-6.48 1.09 -3.76 0-6.64-0.87-8.67-2.61C171.4 84.58 170.21 82.05 169.81 78.72z" fill="#FFF"/><path d="M51.41 115.42c0 0.43-0.1 0.72-0.31 0.84 -0.2 0.13-0.79 0.22-1.77 0.26 -0.89 0.03-1.45-0.02-1.65-0.14 -0.24-0.15-0.36-0.47-0.36-0.96V107.4c-0.17 0.02-0.26 0.08-0.28 0.18 -0.04 0.16-0.11 0.28-0.23 0.36 -0.12 0.04-0.24 0.05-0.35 0.04 -0.13-0.06-0.33-0.39-0.58-1 -0.88-1.95-1.29-2.94-1.24-2.98 0-0.04 1.65-0.06 4.94-0.08 1.35-2.85 2.11-5.02 2.28-6.5 0.02-0.12 0.06-0.2 0.13-0.24 0.09-0.04 0.16-0.05 0.23-0.04l4.59 1.04c0.35 0.05 0.62 0.13 0.79 0.22 0.19 0.08 0.27 0.19 0.25 0.32 -0.02 0.28-0.3 0.41-0.86 0.4 -0.29 0.01-0.49 0.11-0.61 0.28 -0.71 0.76-2.37 2.26-4.96 4.5 0.98-0.07 2.06-0.11 3.24-0.12 3.16-0.13 5.69-0.24 7.57-0.34 -0.49-0.85-1.34-1.74-2.56-2.66 -0.12-0.1-0.17-0.19-0.15-0.24 0.03-0.06 0.11-0.09 0.23-0.08 1.01 0.12 2.18 0.42 3.5 0.9 2.52 0.89 3.94 1.98 4.26 3.26 0.15 0.63 0.07 1.19-0.25 1.68 -0.39 0.51-0.87 0.8-1.44 0.9 -0.58 0.09-1.07 0.05-1.49-0.12 -0.44-0.2-0.73-0.56-0.89-1.08 -0.29-0.72-0.57-1.37-0.83-1.94 -3.6 0.91-8.14 1.93-13.63 3.04l2.81 0.92h0.03 8.79l1.47-1.32c0.09-0.08 0.16-0.11 0.23-0.11 0.07 0 0.16 0.03 0.28 0.08l2.48 1.32c0.59 0.32 0.56 0.66-0.1 1.02 -0.22 0.13-0.33 0.33-0.33 0.58v6.24c0 0.24-0.1 0.41-0.3 0.5 -0.24 0.11-1.12 0.21-2.66 0.31 -0.34 0.01-0.58-0.06-0.74-0.22 -0.12-0.14-0.18-0.26-0.18-0.4v-0.94h-9.32V115.42zM60.73 114.5v-5.92h-9.32v5.92H60.73z" fill="#FFF"/><path d="M87.47 106.78c0 0.28-0.08 0.46-0.23 0.54 -0.19 0.08-0.49 0.12-0.91 0.14 -0.54 0.02-0.87 0-0.99-0.08 -0.12-0.08-0.17-0.28-0.17-0.6v-1.02c-0.66 0.63-1.37 1.18-2.13 1.67 -0.1 0.04-0.18 0.05-0.23 0.04 -0.04-0.03-0.02-0.08 0.05-0.16 0.41-0.68 0.68-1.62 0.84-2.82 0.04-0.12 0.06-0.2 0.08-0.24 0.02-0.01 0.05-0.02 0.1-0.02 -0.21-0.52-0.37-0.98-0.48-1.38l-1.82 7.82c-0.22 0.66-0.15 1.16 0.2 1.52 0.57 0.68 0.83 1.42 0.76 2.24 -0.07 0.68-0.39 1.23-0.96 1.64 -0.51 0.39-1.09 0.55-1.75 0.5 -0.66-0.08-1.17-0.31-1.52-0.68 -0.42-0.47-0.51-1.18-0.26-2.14 0.2-0.8 0.19-1.49-0.03-2.06 -0.17-0.31-0.54-0.56-1.11-0.76 -0.1-0.05-0.14-0.11-0.13-0.16 0.02-0.06 0.08-0.1 0.2-0.1 0.34 0.01 0.69 0.03 1.06 0.04 0.36 0 0.64-0.16 0.86-0.48 1.3-2.1 2.74-4.88 4.31-8.36 0.05-0.11 0.14-0.16 0.25-0.16 0.1 0.02 0.15 0.08 0.15 0.2l-0.1 0.4c0.22 0 0.64 0.01 1.27 0.02 0.2-0.25 0.39-0.49 0.56-0.7 -0.56-0.02-0.91-0.1-1.06-0.26 -0.2-0.19-0.31-0.43-0.33-0.73 -0.07-0.62-0.28-1.12-0.63-1.48 -0.04-0.03-0.05-0.06-0.05-0.1 0.01-0.05 0.08-0.07 0.18-0.06 0.31 0.01 0.61 0.05 0.91 0.1 0.36-0.6 0.59-1.16 0.71-1.68 0.05-0.08 0.09-0.13 0.1-0.14 0.05-0.02 0.13-0.02 0.23 0l2.31 0.57c0.28 0.09 0.42 0.19 0.4 0.28 -0.03 0.11-0.16 0.17-0.38 0.18 -0.22 0.02-0.39 0.07-0.51 0.16 -0.71 0.3-1.4 0.59-2.08 0.84 0.59 0.26 0.96 0.56 1.12 0.92 0.27-0.47 0.46-0.85 0.59-1.14 0.02-0.06 0.05-0.09 0.1-0.1 0.07-0.01 0.11-0.02 0.13-0.02l1.77 0.74c0-0.04 0-0.07 0-0.08 0-0.18 0.11-0.26 0.33-0.26h3.32c0.19-0.27 0.39-0.52 0.61-0.78 0.05-0.06 0.1-0.1 0.15-0.1 0.07 0 0.16 0.03 0.28 0.08 1.13 0.68 1.7 1.04 1.7 1.08 -0.02 0.1-0.03 0.19-0.05 0.24 -0.02 0.03-0.03 0.04-0.05 0.04h-1.49 -0.08 -4.16c0.12 0.04 0.21 0.09 0.28 0.14 0.07 0.07 0.09 0.13 0.08 0.18 -0.04 0.09-0.09 0.14-0.16 0.14 -0.32-0.01-1.04 0.32-2.15 1 1.07 0.29 1.73 0.69 1.98 1.18 0.1 0.19 0.14 0.39 0.13 0.6 0.07-0.01 0.14-0.01 0.21 0l1.64 0.44h0.08 0.74l0.53-0.36c0.07-0.05 0.13-0.08 0.18-0.08 0.08 0 0.18 0.02 0.27 0.06l1.32 0.5c0.15 0.06 0.23 0.12 0.23 0.2 -0.15 0.16-0.29 0.31-0.4 0.44v2.6c-0.02 0.13-0.06 0.23-0.13 0.28 -0.24 0.16-0.81 0.2-1.72 0.12 -0.17-0.04-0.25-0.13-0.25-0.26v-0.46h-0.58v0.28c0 0.13-0.03 0.23-0.1 0.28 -0.05 0.07-0.13 0.11-0.23 0.12 -0.93 0.12-1.47 0.12-1.62 0 -0.16-0.15-0.22-0.28-0.2-0.4v-0.38c-0.29 0.26-0.61 0.38-0.96 0.36 -0.54-0.06-0.78-0.36-0.73-0.88 0.03-0.72-0.08-1.26-0.33-1.62V106.78zM79.56 103.28c0.73 0.32 1.22 0.67 1.47 1.04 0.2 0.35 0.27 0.72 0.2 1.12 -0.08 0.41-0.29 0.73-0.61 0.94 -0.44 0.27-0.87 0.39-1.29 0.38 -0.52-0.03-0.92-0.18-1.19-0.48 -0.24-0.28-0.36-0.64-0.38-1.08 -0.02-1.01-0.25-1.76-0.71-2.24 -0.05-0.06-0.07-0.11-0.05-0.16 0.05-0.06 0.13-0.09 0.26-0.08C78.07 102.8 78.83 102.98 79.56 103.28zM80.86 98.12c0.81 0.29 1.35 0.65 1.62 1.06 0.27 0.32 0.38 0.69 0.33 1.1 -0.07 0.42-0.24 0.74-0.51 0.98 -0.4 0.29-0.82 0.45-1.24 0.46 -0.51 0.01-0.92-0.12-1.24-0.4 -0.34-0.33-0.51-0.77-0.51-1.3 -0.2-1.01-0.58-1.74-1.14-2.18 -0.05-0.05-0.07-0.11-0.05-0.16 0.01-0.06 0.1-0.1 0.25-0.1C79.25 97.65 80.08 97.82 80.86 98.12zM95.45 113.48c0.11-0.18 0.21-0.54 0.28-1.06h-8.11c-0.14 0.42-0.31 0.69-0.53 0.78 -0.25 0.1-0.87 0.15-1.84 0.14 -0.93-0.05-1.5-0.17-1.72-0.34 -0.2-0.15-0.24-0.34-0.13-0.58 0.64-1.64 0.97-2.69 0.99-3.14 0.02-0.06 0.04-0.12 0.05-0.16 0.05-0.03 0.14-0.04 0.25-0.03l2.99 0.6h0.08 7.5v-1.36H83.84c-0.1 0-0.2 0-0.3 0 -0.19 0-0.28-0.1-0.28-0.3 0.01-0.17 0.11-0.26 0.28-0.26 0.12 0 0.21 0 0.28 0h11.38l0.96-0.84c0.11-0.12 0.23-0.18 0.33-0.18 0.12 0.02 0.26 0.05 0.43 0.11 0-0.08 0-0.17 0-0.24v-1.16c-0.69 0.72-1.47 1.35-2.33 1.88 -0.1 0.04-0.17 0.05-0.23 0.04 -0.04-0.03-0.02-0.08 0.05-0.16 0.41-0.68 0.68-1.62 0.84-2.82 0.03-0.12 0.06-0.2 0.07-0.24 0.05-0.03 0.11-0.04 0.18-0.02 -0.25-0.65-0.44-1.21-0.56-1.66 -0.05-0.14 0.01-0.21 0.18-0.2 0.24 0.03 0.69 0.05 1.37 0.06 0.17-0.26 0.34-0.51 0.51-0.72 -0.54-0.02-0.89-0.11-1.04-0.24 -0.19-0.17-0.29-0.4-0.3-0.68 -0.05-0.69-0.28-1.2-0.68-1.54 -0.04-0.03-0.05-0.06-0.05-0.1 0.02-0.04 0.08-0.06 0.18-0.06 0.34 0.01 0.66 0.07 0.96 0.16 0.32-0.61 0.54-1.18 0.66-1.72 0.01-0.08 0.05-0.13 0.1-0.14 0.05-0.01 0.13-0.01 0.23 0l2.31 0.54c0.28 0.09 0.42 0.19 0.4 0.28 -0.03 0.11-0.16 0.17-0.38 0.18 -0.2 0.02-0.36 0.08-0.48 0.16 -0.73 0.35-1.45 0.65-2.18 0.9 0.54 0.2 0.91 0.5 1.11 0.9 0.24-0.46 0.41-0.86 0.53-1.2 0.02-0.05 0.05-0.09 0.1-0.1 0.04-0.01 0.08-0.02 0.13-0.02l2.28 0.84c0.19 0.05 0.31 0.11 0.38 0.16 0.08 0.05 0.12 0.12 0.1 0.2 -0.02 0.09-0.07 0.15-0.18 0.16 -0.25-0.07-0.96 0.3-2.13 1.1 1.12 0.24 1.8 0.62 2.06 1.14 0.12 0.19 0.17 0.39 0.15 0.6 -0.04 0.22-0.13 0.38-0.28 0.5 -0.24 0.16-0.46 0.24-0.68 0.24 -0.27-0.01-0.49-0.08-0.66-0.22 -0.03-0.03-0.12-0.3-0.28-0.82 -0.07 0.03-0.11 0.05-0.13 0.06v1.1c0.49 0.15 0.92 0.37 1.29 0.66 0.68 0.51 0.97 1.02 0.86 1.54 -0.08 0.23-0.21 0.38-0.38 0.48 -0.25 0.12-0.49 0.18-0.71 0.16 -0.56-0.06-0.81-0.34-0.76-0.86 0-0.69-0.1-1.2-0.3-1.52v2.16c0 0.28-0.08 0.46-0.23 0.54 -0.19 0.08-0.49 0.13-0.91 0.14l1.27 0.49c0.28 0.11 0.42 0.24 0.4 0.38 -0.27 0.27-0.51 0.53-0.73 0.78v1.58c0 0.24-0.08 0.41-0.23 0.5 -0.1 0.05-0.31 0.11-0.64 0.16l1.98 1.05c0.22 0.15 0.32 0.34 0.31 0.6 -0.07 0.27-0.28 0.44-0.63 0.54 -0.3 0.1-0.46 0.23-0.48 0.41 0.03 0.6 0.03 1.01-0.03 1.22 -0.26 0.72-0.79 1.18-1.62 1.4 -0.74 0.19-1.86 0.3-3.34 0.34 -0.1-0.03-0.16-0.05-0.18-0.1 -0.05-0.12-0.02-0.32 0.08-0.6 0.03-0.8-0.46-1.48-1.47-2.04 -0.13-0.03-0.19-0.09-0.18-0.18 0.02-0.1 0.09-0.15 0.2-0.14 1.49 0.12 2.31 0.13 2.46 0.04C95.31 113.67 95.38 113.6 95.45 113.48zM85.16 104.54v-0.56c-0.44 0.12-0.69 0.25-0.74 0.38L85.16 104.54zM87.14 101.58c-0.4 0.23-0.84 0.48-1.29 0.76 0.59 0 1.17 0 1.75 0 -0.02-0.08-0.04-0.14-0.05-0.2C87.44 101.94 87.3 101.75 87.14 101.58zM89.49 105.46v-2.14c-0.07 0.15-0.16 0.27-0.28 0.36 -0.24 0.14-0.47 0.2-0.68 0.2 -0.25 0-0.47-0.08-0.63-0.25 -0.15-0.19-0.23-0.44-0.23-0.76 -0.08 0.03-0.15 0.06-0.2 0.11v1.08c0.49 0.18 0.94 0.41 1.37 0.7C89.16 104.98 89.38 105.22 89.49 105.46zM96.34 111.26c-0.29 0-0.51 0-0.66-0.02 -0.29-0.06-0.43-0.22-0.43-0.48v-0.5h-7.05l-0.43 1.61h7.93L96.34 111.26zM92.94 98.41h-3.16c-0.22 0-0.33-0.1-0.33-0.3 0-0.17 0.11-0.26 0.33-0.26h2.28c0.14-0.23 0.29-0.44 0.46-0.64 0.07-0.05 0.11-0.08 0.13-0.08 0.09 0 0.16 0.02 0.23 0.06 1.03 0.61 1.55 0.93 1.55 0.94 -0.02 0.11-0.03 0.19-0.05 0.24 -0.02 0.03-0.04 0.04-0.05 0.04h-1.29H92.94zM93.14 101.46h-3.27c-0.22 0-0.33-0.1-0.33-0.3 0-0.17 0.11-0.26 0.33-0.26h2.38c0.14-0.22 0.29-0.44 0.46-0.64 0.07-0.05 0.11-0.08 0.13-0.08 0.09 0 0.16 0.02 0.23 0.06 1.03 0.61 1.54 0.93 1.54 0.94 -0.02 0.11-0.03 0.18-0.05 0.24 -0.02 0.03-0.04 0.04-0.05 0.04h-1.29H93.14zM93.14 102.82h-3.27c-0.22 0-0.33-0.1-0.33-0.3 0-0.17 0.11-0.26 0.33-0.26h2.38c0.14-0.23 0.29-0.44 0.46-0.64 0.07-0.05 0.11-0.08 0.13-0.08 0.09 0 0.16 0.02 0.23 0.05 1.03 0.62 1.54 0.93 1.54 0.94 -0.02 0.11-0.03 0.19-0.05 0.24 -0.02 0.03-0.04 0.04-0.05 0.04h-1.29H93.14zM92.23 106.1v-1.92h-0.58v1.92H92.23zM96.92 104.52v-0.58c-0.54 0.2-0.81 0.32-0.81 0.36L96.92 104.52zM99.17 102.14c-0.08-0.19-0.23-0.37-0.43-0.54 -0.34 0.24-0.71 0.49-1.12 0.74 0.71 0 1.24 0 1.6 0C99.21 102.26 99.19 102.19 99.17 102.14z" fill="#FFF"/><path d="M131.73 106.66h-11.86c-0.24-0.01-0.35-0.1-0.35-0.28 0-0.19 0.11-0.28 0.33-0.28h10.21c0.12-0.19 0.24-0.34 0.36-0.48 -0.34-0.03-0.56-0.07-0.66-0.12 -0.15-0.11-0.24-0.29-0.25-0.54v-0.14h-5.95v0.2c0 0.23-0.05 0.38-0.15 0.46 -0.1 0.11-0.23 0.17-0.38 0.18 -0.18 0.05-0.59 0.09-1.22 0.1 -0.76 0.03-1.22 0-1.37-0.08 -0.27-0.2-0.38-0.42-0.33-0.66v-2.45c-0.05 0.05-0.09 0.12-0.1 0.2 -0.76 1.25-1.62 2.28-2.58 3.09 -0.08 0.05-0.15 0.11-0.2 0.16 1.5 0.36 2.46 0.92 2.89 1.68 0.18 0.32 0.24 0.67 0.18 1.04 -0.08 0.39-0.28 0.68-0.58 0.88 -0.39 0.24-0.78 0.35-1.19 0.34 -0.96-0.05-1.44-0.54-1.44-1.46 -0.05-0.94-0.2-1.6-0.46-1.96 -0.03 0.02-0.05 0.03-0.05 0.04v8.76c-0.02 0.48-0.15 0.79-0.41 0.92 -0.36 0.2-0.96 0.33-1.82 0.38 -0.78 0.05-1.33 0.01-1.65-0.12 -0.24-0.11-0.35-0.5-0.35-1.18v-6.32c-0.86 0.4-1.63 0.71-2.31 0.92 -0.17 0.05-0.29 0.05-0.35 0 -0.03-0.16 0.26-0.4 0.87-0.72 2.14-1.47 3.96-4.01 5.45-7.62h-5.6c-0.14 0-0.24 0-0.3 0 -0.2 0.02-0.3-0.08-0.3-0.28 0-0.17 0.1-0.26 0.3-0.26 0.08 0 0.19 0 0.3 0h2.03v-3.32c-0.02-0.14 0-0.25 0.07-0.3 0.07-0.08 0.23-0.11 0.51-0.1l3.27 0.1c0.52 0.02 0.86 0.07 1.01 0.16 0.49 0.3 0.41 0.58-0.25 0.86 -0.37 0.17-0.55 0.35-0.53 0.52v1.78l0.68-0.73c0.07-0.08 0.15-0.11 0.25-0.11 0.12-0.02 0.24 0.03 0.36 0.11l2.33 1.06v-2.5c0-0.06 0.03-0.13 0.1-0.18 0.08-0.02 0.19-0.02 0.31-0.02l2.86 0.74h0.05 0.81v-1.42c0-0.08 0.01-0.12 0.02-0.14 0.03-0.04 0.11-0.05 0.23-0.04l1.52 0.04c0.25 0.02 0.42 0.04 0.49 0.08 0.2 0.14 0.16 0.27-0.1 0.4 -0.18 0.08-0.27 0.16-0.25 0.24v0.84h0.73v-1.42c0-0.08 0.01-0.12 0.02-0.14 0.04-0.04 0.11-0.05 0.23-0.04l1.52 0.04c0.25 0.02 0.42 0.04 0.48 0.08 0.2 0.14 0.17 0.27-0.1 0.4 -0.19 0.08-0.28 0.16-0.26 0.24v0.84h0.64l1.09-0.84c0.1-0.09 0.2-0.14 0.3-0.14 0.12 0 0.26 0.05 0.43 0.14l2.3 1.03c0.69 0.32 0.69 0.62-0.03 0.9 -0.24 0.09-0.35 0.27-0.35 0.52v4.22c-0.02 0.18-0.09 0.31-0.2 0.4 0.76 0.55 1.14 0.88 1.14 1 0 0.11-0.02 0.19-0.08 0.24 -0.03 0.03-0.06 0.04-0.08 0.04h-2.07H131.73zM132.28 115.78h-13.63c-0.24-0.02-0.36-0.11-0.36-0.28 0-0.19 0.11-0.28 0.33-0.28h4.18c-0.3-0.23-0.49-0.54-0.56-0.94 -0.15-0.84-0.46-1.44-0.93-1.82 -0.07-0.04-0.09-0.08-0.08-0.14 0-0.07 0.08-0.1 0.23-0.1 1.72-0.15 2.96 0.12 3.73 0.8 0.27 0.29 0.4 0.64 0.4 1.04 -0.04 0.44-0.25 0.83-0.66 1.16h2.48c0.52-1.32 0.82-2.35 0.89-3.08 0.01-0.21 0.11-0.3 0.28-0.26 2.42 0.45 3.71 0.76 3.88 0.96 0.05 0.1 0.04 0.21-0.02 0.3 -0.08 0.11-0.26 0.18-0.53 0.22 -0.29 0.05-0.49 0.11-0.61 0.21 -0.67 0.53-1.39 1.09-2.15 1.66h1.62c0.32-0.48 0.66-0.96 1.01-1.44 0.1-0.11 0.19-0.16 0.25-0.16 0.12 0 0.24 0.05 0.36 0.14 1.4 1.12 2.1 1.7 2.1 1.74 0 0.11-0.03 0.19-0.08 0.24 -0.04 0.02-0.06 0.04-0.08 0.04h-1.92H132.28zM124.22 111.68c-0.12 0.1-0.27 0.16-0.43 0.2 -0.19 0.06-0.62 0.09-1.3 0.11 -0.81 0.02-1.29-0.01-1.44-0.1 -0.29-0.18-0.4-0.42-0.35-0.7v-4.06c0-0.08 0.03-0.15 0.1-0.2 0.07-0.03 0.18-0.03 0.33-0.02l3.09 0.8h0.07 4.79l0.91-0.78c0.1-0.1 0.21-0.16 0.33-0.16 0.14 0 0.29 0.04 0.46 0.12l2.23 0.84c0.25 0.1 0.38 0.2 0.38 0.34 -0.25 0.26-0.48 0.52-0.69 0.76v2.44c0 0.23-0.07 0.38-0.22 0.46 -0.16 0.09-0.57 0.16-1.24 0.2 -0.81 0.06-1.37 0.07-1.67 0.02 -0.29-0.07-0.43-0.22-0.43-0.46V111.3h-4.79C124.33 111.47 124.29 111.6 124.22 111.68zM124.22 101.7v-2h-0.68v2H124.22zM124.22 104.26v-2h-0.68v2H124.22zM129.14 110.74v-2.48h-4.76v2.49H129.14zM126.86 101.7v-2h-0.73v2H126.86zM126.86 104.26v-2h-0.73v2H126.86zM129.5 101.7v-2h-0.74v2H129.5zM129.5 104.26v-2h-0.74v2H129.5z" fill="#FFF"/><path d="M147.52 115.18c0 0.44-0.1 0.72-0.3 0.84 -0.21 0.13-0.8 0.22-1.78 0.26 -0.9 0.02-1.44-0.02-1.65-0.14 -0.24-0.15-0.36-0.47-0.36-0.96v-9.14c0-0.12 0.03-0.2 0.1-0.24 0.07-0.04 0.16-0.03 0.28 0.02l4.05 1.32h0.03 1.72l1.27-1c0.12-0.1 0.24-0.14 0.36-0.14 0.12 0 0.28 0.04 0.48 0.14l2.59 1.2c0.79 0.37 0.78 0.71-0.03 1 -0.27 0.11-0.4 0.31-0.38 0.6v6.58c-0.02 0.2-0.11 0.35-0.28 0.44 -0.24 0.17-0.79 0.27-1.67 0.28 -1.06 0.04-1.7-0.01-1.9-0.14 -0.18-0.12-0.28-0.32-0.28-0.6v-0.84h-2.26V115.18zM151.27 104.94c0 0.44-0.1 0.72-0.3 0.84 -0.2 0.13-0.79 0.22-1.77 0.26 -0.9 0.03-1.44-0.02-1.65-0.13 -0.24-0.15-0.35-0.47-0.35-0.96v-7.46c0-0.12 0.03-0.2 0.1-0.24 0.07-0.04 0.16-0.03 0.28 0.02l4.05 1.32h0.03 6.59l1.52-1.2c0.12-0.09 0.23-0.14 0.33-0.14 0.08 0 0.21 0.05 0.38 0.14l2.43 1.28c0.68 0.35 0.61 0.7-0.2 1.06 -0.23 0.09-0.35 0.26-0.35 0.5v5.1c0.01 0.27-0.05 0.45-0.2 0.54 -0.17 0.15-0.77 0.24-1.8 0.28 -0.86 0.03-1.39 0.02-1.6-0.04 -0.29-0.1-0.43-0.28-0.43-0.54v-1.06h-7.04V104.94zM149.78 114.1v-6.4h-2.26v6.4H149.78zM158.32 103.94v-4.8h-7.04v4.8H158.32zM159.18 115.34c0 0.45-0.1 0.72-0.3 0.84 -0.2 0.13-0.79 0.22-1.77 0.26 -0.9 0.03-1.44-0.02-1.64-0.14 -0.24-0.15-0.35-0.46-0.35-0.96v-9.3c0-0.12 0.03-0.2 0.1-0.24 0.07-0.04 0.16-0.03 0.28 0.02l4.06 1.32h0.02 1.82l1.27-1c0.12-0.1 0.23-0.14 0.35-0.14 0.12 0 0.28 0.04 0.48 0.14l2.59 1.2c0.79 0.37 0.78 0.71-0.03 1 -0.27 0.11-0.4 0.31-0.38 0.6v6.58c-0.02 0.2-0.11 0.35-0.28 0.44 -0.24 0.17-0.79 0.27-1.67 0.28 -1.06 0.04-1.7-0.01-1.9-0.14 -0.18-0.12-0.28-0.32-0.28-0.6v-0.76h-2.36V115.34zM161.54 114.18v-6.48h-2.36v6.48H161.54z" fill="#FFF"/><path d="M191.37 115.58c-0.02 0.43-0.11 0.69-0.28 0.78 -0.18 0.13-0.74 0.22-1.67 0.26 -0.84 0.02-1.37-0.02-1.57-0.14 -0.22-0.12-0.33-0.42-0.33-0.9v-11.7c-0.22 0-0.44-0.02-0.66-0.07 -0.49-0.15-0.85-0.39-1.07-0.72 -0.24-0.43-0.22-0.84 0.05-1.26 -0.61-0.07-1.02-0.38-1.24-0.94 -0.5-0.93-0.91-1.5-1.21-1.7 -0.7 0.94-1.61 1.83-2.74 2.68h1.82c0.24-0.39 0.48-0.77 0.74-1.14 0.07-0.09 0.14-0.14 0.2-0.14 0.09 0 0.16 0.04 0.23 0.12 0.3 0.27 0.57 0.51 0.78 0.72 0.46 0.43 0.66 0.75 0.61 0.96 -0.02 0.03-0.04 0.04-0.06 0.04h-1.36 -0.08 -3.75c-0.57 0.35-1.15 0.67-1.72 0.96l2.18 0.56h0.05 2.33l0.91-0.78c0.11-0.11 0.21-0.17 0.33-0.17 0.14 0 0.29 0.04 0.46 0.12l2.23 0.83c0.25 0.1 0.38 0.21 0.38 0.35 -0.25 0.26-0.48 0.52-0.68 0.76v4.68c0 0.23-0.07 0.38-0.23 0.46 -0.12 0.07-0.36 0.13-0.74 0.18 1.08 1.08 1.62 1.64 1.62 1.68 0 0.11-0.02 0.19-0.07 0.24 -0.02 0.03-0.04 0.04-0.05 0.04h-1.62 -0.1 -4.63v2h3.11c0.32-0.48 0.64-0.96 0.97-1.44 0.1-0.11 0.19-0.16 0.25-0.16 0.08 0 0.18 0.05 0.28 0.14 1.11 1.08 1.67 1.66 1.67 1.74 0 0.11-0.02 0.19-0.08 0.24 -0.01 0.03-0.03 0.04-0.05 0.04h-1.62 -0.1 -4.43v0.84c0 0.22-0.05 0.37-0.16 0.46 -0.1 0.1-0.22 0.16-0.38 0.18 -0.19 0.05-0.59 0.09-1.22 0.1 -0.76 0.02-1.21 0-1.36-0.08 -0.27-0.2-0.38-0.42-0.33-0.66v-11.87c-0.32 0.12-0.63 0.25-0.94 0.36 -0.14 0.03-0.23 0.02-0.28-0.04 -0.02-0.09 0.05-0.18 0.2-0.26 1.98-1.59 3.07-3.68 3.27-6.28 0.01-0.14 0.05-0.25 0.1-0.3 0.07-0.04 0.19-0.05 0.35-0.04l4.61 0.42c0.42 0.03 0.64 0.17 0.64 0.42 -0.02 0.13-0.11 0.25-0.28 0.34 1.02 0.17 1.78 0.49 2.28 0.94 0.42 0.36 0.6 0.85 0.53 1.46 0.81-0.48 1.14-1.01 0.99-1.58 -0.02-0.09 0.01-0.16 0.08-0.2 0.06-0.04 0.15-0.02 0.25 0.06 0.36 0.3 0.62 0.68 0.79 1.16h1.19v-2.52c-0.02-0.14 0.01-0.25 0.08-0.3 0.07-0.08 0.24-0.11 0.51-0.1l3.27 0.1c0.52 0.01 0.86 0.07 1.01 0.16 0.49 0.3 0.41 0.58-0.25 0.86 -0.37 0.17-0.55 0.35-0.53 0.52v1.28h0.76l1.3-1.12c0.08-0.07 0.17-0.1 0.28-0.1 0.1 0 0.21 0.04 0.32 0.12l2.18 1.4c0.44 0.3 0.65 0.6 0.63 0.92 -0.08 0.76-0.76 0.96-2.03 0.6 -0.89-0.29-1.76-0.26-2.59 0.1 0.05 0.02 0.09 0.03 0.11 0.04l2.43 1.12c0.34 0.16 0.5 0.31 0.5 0.44 0 0.21-0.18 0.38-0.53 0.5 -0.24 0.11-0.35 0.3-0.35 0.58v3.24c0 0.19-0.09 0.33-0.25 0.42 -0.24 0.16-0.77 0.25-1.6 0.26 -0.98 0.03-1.57-0.02-1.77-0.14 -0.17-0.14-0.26-0.33-0.28-0.58v-0.36h-2.59v2.32h2.66l1.19-0.92c0.1-0.09 0.21-0.14 0.33-0.14 0.14 0 0.29 0.05 0.46 0.14l2.43 1.12c0.34 0.16 0.51 0.31 0.51 0.45 0 0.21-0.17 0.38-0.53 0.49 -0.24 0.11-0.35 0.3-0.35 0.58v4.12c0 0.19-0.08 0.33-0.25 0.42 -0.23 0.16-0.77 0.25-1.59 0.26 -0.98 0.02-1.57-0.02-1.77-0.14 -0.17-0.13-0.26-0.33-0.28-0.58v-0.92h-2.79V115.58zM180.43 106.58h2.25v-2.08h-2.25V106.58zM180.43 109.14h2.25v-2h-2.25V109.14zM184.63 110.42c-0.74 0.01-1.25 0.01-1.51 0 -0.29-0.07-0.43-0.22-0.43-0.46v-0.26h-2.25v2.08h3.32C184.01 111.31 184.31 110.86 184.63 110.42zM195.57 100.9h-5.85c0.11 0.6 0.07 1.15-0.13 1.64l2.05 0.68h0.02 2.15l1.19-0.92C195.24 101.97 195.42 101.5 195.57 100.9zM193.96 107.22v-3.44h-2.59v3.44H193.96zM194.16 114.42v-3.76h-2.79v3.76H194.16z" fill="#FFF"/></svg>