<svg xmlns="http://www.w3.org/2000/svg" xmlns:xlink="http://www.w3.org/1999/xlink" version="1.1" id="圖層_1" x="0" y="0" viewBox="0 0 960 101.4" enable-background="new 0 0 960 101.4" xml:space="preserve"><path fill="#FFFFFF" d="M29.6 101.4V18.7H0V1.8h79.1v16.8H49.6v82.7H29.6z"/><path fill="#FFFFFF" d="M171.5 101.4h-21.9L141 78.8h-39.8L93 101.4H71.7l38.8-99.5h21.3L171.5 101.4zM134.5 62L120.8 25 107.3 62C107.3 62 134.5 62 134.5 62z"/><path fill="#FFFFFF" d="M181.6 101.4V1.8h20.1v99.6H181.6z"/><path fill="#FFFFFF" d="M235 101.4L211.2 1.8h20.6l15 68.4L265 1.8h23.9l17.4 69.5 15.3-69.5h20.2l-24.2 99.6h-21.3l-19.8-74.5 -19.7 74.4H235z"/><path fill="#FFFFFF" d="M434.2 101.4h-21.9l-8.7-22.6h-39.8l-8.2 22.6h-21.3l38.8-99.5h21.3L434.2 101.4zM397.2 62L383.5 25 370 62C370 62 397.2 62 397.2 62z"/><path fill="#FFFFFF" d="M445 101.4V1.8h19.6l40.7 66.5V1.8h18.7v99.6h-20.2l-40.1-64.9v64.9H445z"/><path fill="#FFFFFF" d="M580.6 64.7V47.9h43.3v39.7c-4.2 4.1-10.3 7.7-18.3 10.8 -8 3.1-16.1 4.7-24.3 4.7 -10.4 0-19.5-2.2-27.2-6.6 -7.7-4.3-13.6-10.6-17.5-18.7 -3.9-8.1-5.8-17-5.8-26.5 0-10.4 2.2-19.6 6.5-27.6 4.3-8.1 10.7-14.2 19.1-18.5 6.4-3.3 14.3-4.9 23.9-4.9 12.4 0 22 2.6 29 7.8 7 5.2 11.4 12.4 13.4 21.5l-20 3.8c-1.4-4.9-4-8.7-7.9-11.6 -3.8-2.8-8.7-4.3-14.5-4.3 -8.8 0-15.8 2.8-21 8.4s-7.8 13.9-7.8 24.8c0 11.8 2.6 20.7 7.9 26.6 5.3 5.9 12.1 8.9 20.6 8.9 4.2 0 8.4-0.8 12.7-2.5 4.2-1.6 7.8-3.7 10.9-6V64.7L580.6 64.7 580.6 64.7z"/><path fill="#FFFFFF" d="M721 13.7C711.6 4.6 699.1 0 683.5 0c-8.6 0-16.2 1.3-22.8 3.9 -4.9 1.9-9.5 4.9-13.7 9 -4.2 4-7.5 8.6-9.8 13.7 -3.2 6.9-4.8 15.4-4.8 25.5 0 15.8 4.6 28.3 13.9 37.3 9.3 9.1 21.8 13.5 37.5 13.5 7.7 0 14.6-1.2 20.7-3.4 -0.5-0.3-1-0.6-1.4-0.9 -2.7-1-5.2-2.7-7.3-4.8 -2.1-1.5-3.9-3.4-5.2-5.5 -0.8-0.9-1.6-1.9-2.3-2.9 -1.5 0.2-3 0.4-4.6 0.4 -8.5 0-15.5-2.9-21.1-8.7 -5.5-5.8-8.3-14.4-8.3-25.6 0-11.5 2.7-20 8.1-25.7 5.4-5.7 12.5-8.5 21.3-8.5 8.8 0 15.9 2.8 21.2 8.4 5.3 5.6 8 14.1 8 25.5 0 6.3-0.9 11.7-2.5 16.3 2.9 5.3 10 12.6 16.6 13.8 4.7-7.9 8-18.2 8-29.6C735 35.4 730.3 22.8 721 13.7z"/><path fill="#FFFFFF" d="M771.3 13.7C761.9 4.6 749.4 0 733.9 0c-7.4 0-14.8 1.1-20.9 3.1 3.6 1.6 12.3 8.5 15.5 14.6 1.8-0.3 3.6-0.5 5.6-0.5 8.8 0 15.8 2.8 21.2 8.4s8 14.1 8 25.5c0 11.5-2.7 20.2-8.2 26 -5.5 5.7-12.5 8.6-21 8.6 -8.5 0-15.5-2.9-21.1-8.7s-8.3-14.4-8.3-25.6c0-6.3 0.9-11.6 2.5-16.2 -0.4-3.8-10-14-17.1-13.3 -1.2 1.8-1.6 2.6-2.5 4.6 -3.2 6.9-4.8 15.4-4.8 25.5 0 15.8 4.6 28.3 13.9 37.3 9.3 9.1 21.8 13.5 37.5 13.5 15.5 0 28-4.5 37.3-13.6 9.3-9.1 13.9-21.6 13.9-37.7C785.3 35.4 780.6 22.8 771.3 13.7z"/><path fill="#FFFFFF" d="M790.8 1.8h36.7c8.3 0 14.6 0.6 18.9 1.9 5.8 1.7 10.9 4.8 15 9.2 4.2 4.4 7.3 9.8 9.5 16.1 2.2 6.4 3.3 14.2 3.3 23.5 0 8.2-1 15.3-3.1 21.2 -2.5 7.2-6 13.1-10.6 17.6 -3.5 3.4-8.2 6.1-14.1 8 -4.4 1.4-10.4 2.1-17.8 2.1h-37.8L790.8 1.8 790.8 1.8zM810.9 18.7v66h15c5.6 0 9.6-0.3 12.2-1 3.3-0.8 6-2.2 8.1-4.2 2.2-1.9 3.9-5.2 5.3-9.6 1.4-4.5 2-10.5 2-18.2s-0.7-13.6-2-17.7c-1.4-4.1-3.3-7.3-5.7-9.6 -2.4-2.3-5.5-3.8-9.3-4.7 -2.8-0.6-8.3-1-16.5-1L810.9 18.7 810.9 18.7z"/><path fill="#FFFFFF" d="M879 68.9l19.6-1.9c1.2 6.6 3.6 11.4 7.2 14.4 3.6 3.1 8.5 4.6 14.6 4.6 6.5 0 11.4-1.4 14.6-4.1 3.3-2.8 4.9-5.9 4.9-9.6 0-2.4-0.7-4.3-2-6 -1.4-1.7-3.8-3.1-7.2-4.3 -2.4-0.8-7.7-2.3-16.1-4.3 -10.8-2.7-18.3-6-22.7-9.9 -6.1-5.5-9.1-12.2-9.1-20 0-5.1 1.4-9.8 4.3-14.2 2.9-4.4 7-7.8 12.4-10.1 5.4-2.3 12-3.5 19.6-3.5 12.5 0 21.9 2.8 28.2 8.2s9.6 12.8 9.9 21.9L937 31.1c-0.9-5.1-2.7-8.8-5.6-11 -2.8-2.3-7.1-3.4-12.7-3.4 -5.8 0-10.4 1.2-13.7 3.6 -2.1 1.5-3.2 3.6-3.2 6.2 0 2.4 1 4.4 3 6.1 2.5 2.1 8.7 4.3 18.5 6.7 9.8 2.3 17 4.7 21.7 7.2 4.7 2.5 8.4 5.8 11 10.1 2.7 4.3 4 9.6 4 15.8 0 5.7-1.6 11-4.8 16s-7.7 8.7-13.4 11.1c-5.8 2.4-13 3.6-21.6 3.6 -12.6 0-22.2-2.9-29-8.7C884.4 88.5 880.4 80 879 68.9z"/></svg>