<svg xmlns:x="http://ns.adobe.com/Extensibility/1.0/" xmlns:i="http://ns.adobe.com/AdobeIllustrator/10.0/" xmlns:graph="http://ns.adobe.com/Graphs/1.0/" xmlns="http://www.w3.org/2000/svg" xmlns:xlink="http://www.w3.org/1999/xlink" xmlns:a="http://ns.adobe.com/AdobeSVGViewerExtensions/3.0/" version="1.1" id="圖層_1" x="0" y="0" viewBox="0 0 212.04 51.45" xml:space="preserve" enable-background="new 0 0 212.035 51.446"><path d="M6.53 22.39V4.12H0V0.4h17.47v3.72h-6.51v18.27H6.53z" fill="#FFF"/><path d="M37.89 22.39h-4.83l-1.92-4.99h-8.79l-1.81 4.99h-4.71l8.56-21.98h4.7L37.89 22.39zM29.71 13.69L26.68 5.53l-2.97 8.16H29.71z" fill="#FFF"/><path d="M40.11 22.39V0.4h4.44v21.99H40.11z" fill="#FFF"/><path d="M51.9 22.39L46.65 0.4h4.55l3.31 15.1 4.02-15.1h5.28l3.85 15.36 3.37-15.35h4.47l-5.34 21.99h-4.71L61.08 5.95l-4.36 16.44H51.9z" fill="#FFF"/><path d="M95.9 22.39h-4.83l-1.92-4.99h-8.79l-1.82 4.99H73.84l8.56-21.98h4.7L95.9 22.39zM87.73 13.69L84.7 5.53l-2.97 8.16H87.73z" fill="#FFF"/><path d="M98.3 22.39V0.4h4.32l9 14.68V0.4h4.13v21.99h-4.46L102.43 8.05v14.34H98.3z" fill="#FFF"/><path d="M128.23 14.29v-3.7h9.57v8.76c-0.93 0.9-2.28 1.69-4.04 2.38 -1.76 0.68-3.55 1.03-5.36 1.03 -2.3 0-4.31-0.48-6.01-1.45 -1.71-0.96-3-2.35-3.86-4.14 -0.86-1.8-1.29-3.75-1.29-5.86 0-2.29 0.48-4.33 1.44-6.1 0.96-1.78 2.36-3.14 4.21-4.09 1.41-0.73 3.16-1.09 5.27-1.09 2.73 0 4.86 0.57 6.4 1.72 1.54 1.14 2.52 2.73 2.96 4.74l-4.41 0.83c-0.31-1.08-0.89-1.93-1.75-2.56 -0.85-0.62-1.92-0.94-3.2-0.94 -1.94 0-3.48 0.62-4.63 1.85 -1.15 1.23-1.72 3.06-1.72 5.47 0 2.61 0.58 4.57 1.74 5.87 1.16 1.31 2.68 1.96 4.56 1.96 0.93 0 1.86-0.18 2.8-0.55 0.93-0.36 1.73-0.81 2.41-1.33v-2.79H128.23z" fill="#FFF"/><path d="M159.24 3.02c-2.06-2.01-4.82-3.02-8.27-3.02 -1.9 0-3.58 0.29-5.04 0.87 -1.09 0.43-2.1 1.09-3.02 1.98 -0.92 0.89-1.65 1.9-2.17 3.02 -0.71 1.52-1.07 3.4-1.07 5.64 0 3.5 1.02 6.25 3.08 8.24 2.05 2 4.82 2.99 8.29 2.99 1.7 0 3.22-0.26 4.58-0.75 -0.11-0.06-0.21-0.13-0.31-0.2 -0.6-0.22-1.15-0.6-1.62-1.06 -0.47-0.33-0.87-0.74-1.14-1.21 -0.18-0.2-0.35-0.42-0.5-0.65 -0.33 0.05-0.67 0.08-1.02 0.08 -1.88 0-3.43-0.64-4.65-1.93 -1.22-1.29-1.84-3.17-1.84-5.66 0-2.53 0.6-4.42 1.79-5.68 1.19-1.25 2.76-1.88 4.7-1.88 1.95 0 3.51 0.62 4.68 1.86 1.18 1.24 1.76 3.12 1.76 5.64 0 1.39-0.19 2.59-0.55 3.6 0.65 1.17 2.21 2.78 3.66 3.04 1.04-1.74 1.77-4.01 1.77-6.54C162.34 7.83 161.31 5.04 159.24 3.02z" fill="#FFF"/><path d="M170.35 3.02c-2.07-2.01-4.82-3.02-8.26-3.02 -1.64 0-3.27 0.24-4.62 0.68 0.79 0.35 2.72 1.87 3.43 3.22 0.4-0.07 0.8-0.11 1.24-0.11 1.95 0 3.5 0.62 4.68 1.86 1.18 1.24 1.76 3.12 1.76 5.64 0 2.55-0.6 4.46-1.81 5.74 -1.21 1.27-2.75 1.91-4.63 1.91 -1.88 0-3.43-0.64-4.65-1.93 -1.22-1.29-1.83-3.17-1.83-5.66 0-1.39 0.19-2.57 0.55-3.57 -0.09-0.84-2.2-3.1-3.78-2.93 -0.26 0.4-0.36 0.58-0.56 1.01 -0.71 1.52-1.07 3.4-1.07 5.64 0 3.5 1.02 6.25 3.08 8.24 2.05 2 4.82 2.99 8.29 2.99 3.43 0 6.18-1 8.23-3.01 2.05-2 3.08-4.78 3.08-8.33C173.45 7.83 172.42 5.04 170.35 3.02z" fill="#FFF"/><path d="M174.67 0.4h8.11c1.83 0 3.22 0.14 4.18 0.42 1.29 0.38 2.4 1.05 3.32 2.03 0.92 0.97 1.62 2.16 2.1 3.56 0.48 1.41 0.72 3.14 0.72 5.2 0 1.81-0.23 3.37-0.68 4.68 -0.55 1.6-1.33 2.9-2.35 3.89 -0.77 0.75-1.81 1.34-3.12 1.76 -0.98 0.31-2.29 0.47-3.93 0.47h-8.35V0.4zM179.11 4.12v14.57h3.31c1.24 0 2.13-0.07 2.69-0.21 0.72-0.18 1.32-0.49 1.79-0.92 0.48-0.43 0.86-1.14 1.16-2.12 0.3-0.99 0.45-2.33 0.45-4.03 0-1.7-0.15-3-0.45-3.91 -0.3-0.91-0.72-1.62-1.26-2.13 -0.54-0.51-1.22-0.85-2.05-1.03 -0.62-0.14-1.84-0.21-3.65-0.21H179.11z" fill="#FFF"/><path d="M194.16 15.21l4.32-0.42c0.26 1.45 0.79 2.52 1.58 3.19 0.79 0.68 1.87 1.02 3.22 1.02 1.43 0 2.51-0.3 3.23-0.91 0.72-0.61 1.08-1.31 1.08-2.12 0-0.52-0.15-0.96-0.45-1.32 -0.3-0.37-0.84-0.68-1.59-0.95 -0.52-0.18-1.71-0.5-3.56-0.96 -2.38-0.59-4.05-1.32-5.01-2.18 -1.35-1.21-2.02-2.69-2.02-4.42 0-1.12 0.32-2.17 0.95-3.14 0.63-0.97 1.55-1.72 2.74-2.23C199.84 0.26 201.29 0 202.98 0c2.76 0 4.84 0.61 6.23 1.82 1.39 1.21 2.13 2.83 2.19 4.84l-4.43 0.2c-0.19-1.13-0.6-1.94-1.23-2.44 -0.62-0.5-1.56-0.74-2.81-0.74 -1.29 0-2.3 0.27-3.03 0.79 -0.47 0.34-0.7 0.8-0.7 1.37 0 0.52 0.22 0.97 0.66 1.34 0.56 0.47 1.92 0.96 4.08 1.47 2.16 0.51 3.76 1.04 4.79 1.58 1.03 0.55 1.85 1.29 2.43 2.24 0.59 0.94 0.88 2.11 0.88 3.5 0 1.26-0.35 2.44-1.05 3.54 -0.7 1.1-1.69 1.92-2.97 2.46 -1.28 0.53-2.87 0.8-4.78 0.8 -2.78 0-4.91-0.64-6.4-1.93C195.34 19.54 194.45 17.67 194.16 15.21z" fill="#FFF"/><path d="M40.67 50.25c0 0.4-0.09 0.66-0.28 0.77 -0.19 0.12-0.73 0.2-1.63 0.24 -0.82 0.03-1.33-0.02-1.52-0.13 -0.22-0.13-0.33-0.43-0.33-0.88v-7.38c-0.15 0.03-0.24 0.08-0.26 0.17 -0.03 0.15-0.1 0.26-0.21 0.33 -0.11 0.04-0.22 0.05-0.33 0.04 -0.12-0.05-0.3-0.36-0.54-0.92 -0.81-1.79-1.19-2.7-1.14-2.74 0-0.04 1.52-0.06 4.54-0.07 1.24-2.62 1.94-4.62 2.1-5.98 0.01-0.11 0.05-0.18 0.12-0.22 0.08-0.04 0.15-0.05 0.21-0.04l4.22 0.96c0.33 0.05 0.57 0.12 0.72 0.2 0.17 0.07 0.25 0.17 0.24 0.3 -0.02 0.26-0.28 0.38-0.79 0.37 -0.27 0.01-0.45 0.1-0.56 0.26 -0.65 0.7-2.17 2.08-4.57 4.14 0.9-0.06 1.9-0.1 2.99-0.11 2.9-0.12 5.22-0.22 6.97-0.31 -0.45-0.78-1.24-1.6-2.35-2.45 -0.11-0.1-0.15-0.17-0.14-0.22 0.03-0.06 0.1-0.09 0.21-0.07 0.93 0.11 2 0.39 3.22 0.83 2.31 0.82 3.62 1.82 3.91 3 0.14 0.58 0.06 1.09-0.23 1.55 -0.36 0.47-0.8 0.74-1.33 0.83 -0.53 0.09-0.99 0.05-1.37-0.11 -0.4-0.18-0.68-0.51-0.82-0.99 -0.26-0.66-0.52-1.26-0.77-1.78 -3.31 0.84-7.49 1.77-12.54 2.8l2.59 0.84h0.02 8.08l1.35-1.21c0.08-0.07 0.15-0.11 0.21-0.11 0.06 0 0.15 0.02 0.26 0.07l2.28 1.22c0.54 0.3 0.51 0.61-0.09 0.94 -0.2 0.12-0.3 0.3-0.3 0.53v5.74c0 0.22-0.09 0.38-0.28 0.46 -0.22 0.1-1.03 0.19-2.45 0.28 -0.31 0.01-0.54-0.06-0.67-0.2 -0.11-0.12-0.17-0.25-0.17-0.37v-0.86h-8.57V50.25zM49.24 49.4V43.96h-8.57v5.44H49.24z" fill="#FFF"/><path d="M73.83 42.31c0 0.26-0.07 0.42-0.21 0.5 -0.17 0.07-0.45 0.12-0.84 0.13 -0.5 0.02-0.8 0-0.91-0.07 -0.11-0.07-0.16-0.26-0.16-0.55v-0.94c-0.6 0.58-1.26 1.08-1.95 1.52 -0.09 0.04-0.16 0.05-0.21 0.04 -0.03-0.02-0.02-0.07 0.05-0.15 0.37-0.63 0.63-1.49 0.77-2.59 0.03-0.11 0.05-0.18 0.07-0.22 0.02-0.01 0.05-0.02 0.09-0.02 -0.19-0.48-0.33-0.9-0.44-1.27l-1.68 7.19c-0.2 0.6-0.14 1.07 0.19 1.4 0.53 0.62 0.76 1.31 0.7 2.06 -0.06 0.63-0.36 1.13-0.88 1.51 -0.47 0.36-1 0.51-1.61 0.46 -0.6-0.07-1.07-0.28-1.4-0.62 -0.39-0.43-0.47-1.08-0.24-1.97 0.19-0.73 0.18-1.37-0.02-1.89 -0.15-0.28-0.5-0.52-1.02-0.7 -0.1-0.05-0.13-0.1-0.12-0.14 0.02-0.06 0.08-0.09 0.19-0.09 0.31 0.01 0.64 0.02 0.98 0.04 0.33 0 0.59-0.15 0.79-0.44 1.2-1.92 2.52-4.49 3.96-7.69 0.05-0.1 0.13-0.15 0.24-0.15 0.09 0.01 0.14 0.08 0.14 0.18l-0.09 0.37c0.2 0 0.59 0.01 1.17 0.02 0.19-0.23 0.36-0.44 0.51-0.64 -0.51-0.01-0.84-0.09-0.98-0.24 -0.19-0.17-0.29-0.39-0.3-0.66 -0.06-0.58-0.26-1.03-0.58-1.36 -0.03-0.02-0.05-0.05-0.05-0.09 0.02-0.05 0.07-0.07 0.16-0.06 0.28 0.01 0.56 0.05 0.84 0.09 0.33-0.55 0.54-1.07 0.65-1.55 0.05-0.07 0.08-0.11 0.09-0.13 0.05-0.01 0.12-0.01 0.21 0l2.12 0.53c0.26 0.09 0.39 0.17 0.37 0.26 -0.03 0.1-0.15 0.16-0.35 0.17 -0.2 0.01-0.36 0.06-0.47 0.14 -0.65 0.28-1.29 0.54-1.91 0.77 0.54 0.23 0.88 0.51 1.02 0.85 0.25-0.43 0.43-0.78 0.54-1.05 0.02-0.05 0.05-0.08 0.09-0.09 0.06-0.01 0.1-0.02 0.12-0.02l1.63 0.68c0-0.04 0-0.06 0-0.07 0-0.16 0.1-0.24 0.3-0.24h3.05c0.17-0.25 0.35-0.48 0.56-0.72 0.05-0.06 0.09-0.09 0.14-0.09 0.06 0 0.15 0.02 0.26 0.07 1.04 0.62 1.56 0.96 1.56 0.99 -0.02 0.1-0.03 0.17-0.04 0.22 -0.02 0.03-0.03 0.04-0.05 0.04h-1.37H79.42h-3.82c0.11 0.04 0.2 0.08 0.26 0.13 0.06 0.06 0.09 0.12 0.07 0.17 -0.03 0.09-0.08 0.13-0.14 0.13 -0.29-0.01-0.95 0.3-1.98 0.92 0.98 0.27 1.58 0.63 1.82 1.09 0.09 0.17 0.13 0.36 0.12 0.55 0.06-0.01 0.13-0.01 0.19 0l1.52 0.41h0.07 0.68l0.49-0.33c0.06-0.05 0.12-0.07 0.17-0.07 0.08 0 0.16 0.02 0.25 0.05l1.21 0.46c0.14 0.05 0.21 0.11 0.21 0.19 -0.14 0.15-0.27 0.28-0.37 0.41v2.39c-0.02 0.12-0.05 0.21-0.11 0.26 -0.22 0.15-0.75 0.19-1.58 0.11 -0.15-0.04-0.24-0.12-0.24-0.24v-0.42h-0.54v0.26c0 0.12-0.03 0.21-0.09 0.26 -0.05 0.06-0.12 0.1-0.21 0.11 -0.86 0.11-1.35 0.11-1.49 0 -0.14-0.13-0.2-0.26-0.18-0.37v-0.35c-0.27 0.23-0.56 0.34-0.89 0.33 -0.5-0.06-0.72-0.33-0.68-0.81 0.03-0.66-0.07-1.16-0.3-1.49V42.31zM66.56 39.08c0.67 0.3 1.12 0.62 1.35 0.96 0.19 0.32 0.25 0.66 0.19 1.03 -0.08 0.38-0.26 0.67-0.56 0.86 -0.41 0.25-0.8 0.36-1.19 0.35 -0.48-0.02-0.85-0.17-1.09-0.44 -0.22-0.26-0.34-0.59-0.35-0.99 -0.02-0.93-0.23-1.62-0.65-2.06 -0.05-0.05-0.06-0.1-0.05-0.14 0.05-0.06 0.12-0.09 0.23-0.07C65.19 38.65 65.89 38.82 66.56 39.08zM67.75 34.34c0.75 0.27 1.24 0.6 1.49 0.98 0.25 0.3 0.35 0.63 0.31 1.01 -0.06 0.38-0.22 0.68-0.47 0.9 -0.37 0.27-0.76 0.41-1.14 0.42 -0.47 0.01-0.85-0.11-1.14-0.37 -0.31-0.31-0.47-0.71-0.47-1.19 -0.19-0.93-0.54-1.6-1.05-2.01 -0.05-0.05-0.06-0.1-0.05-0.15 0.02-0.06 0.1-0.09 0.24-0.09C66.27 33.91 67.03 34.07 67.75 34.34zM81.17 48.47c0.11-0.17 0.19-0.5 0.26-0.97H73.97c-0.13 0.39-0.29 0.63-0.49 0.72 -0.23 0.1-0.8 0.14-1.7 0.13 -0.85-0.05-1.38-0.15-1.58-0.31 -0.18-0.13-0.22-0.31-0.11-0.53 0.59-1.51 0.89-2.47 0.91-2.89 0.02-0.06 0.03-0.11 0.05-0.15 0.05-0.02 0.12-0.03 0.23-0.02l2.75 0.55h0.07 6.9v-1.25H70.5c-0.09 0-0.19 0-0.28 0 -0.17 0-0.26-0.09-0.26-0.28 0.02-0.16 0.1-0.24 0.26-0.24 0.11 0 0.19 0 0.26 0h10.46l0.88-0.77c0.11-0.11 0.21-0.17 0.31-0.17 0.11 0.02 0.24 0.05 0.4 0.09 0-0.07 0-0.15 0-0.22v-1.07c-0.64 0.66-1.35 1.24-2.15 1.73 -0.09 0.04-0.16 0.05-0.21 0.04 -0.03-0.03-0.02-0.07 0.05-0.15 0.38-0.62 0.63-1.49 0.77-2.59 0.03-0.11 0.05-0.18 0.07-0.22 0.05-0.02 0.1-0.03 0.16-0.02 -0.23-0.6-0.4-1.11-0.51-1.53 -0.05-0.13 0.01-0.2 0.16-0.18 0.22 0.02 0.64 0.05 1.26 0.06 0.15-0.25 0.31-0.47 0.47-0.66 -0.5-0.02-0.82-0.1-0.96-0.22 -0.17-0.16-0.26-0.37-0.28-0.63 -0.05-0.63-0.25-1.11-0.63-1.41 -0.03-0.02-0.05-0.05-0.05-0.09 0.02-0.04 0.07-0.06 0.16-0.06 0.31 0.01 0.61 0.06 0.89 0.15 0.3-0.56 0.5-1.09 0.61-1.58 0.01-0.07 0.05-0.12 0.09-0.13 0.05-0.01 0.12-0.01 0.21 0l2.12 0.5c0.26 0.09 0.39 0.17 0.37 0.26 -0.03 0.1-0.15 0.15-0.35 0.17 -0.19 0.02-0.33 0.07-0.44 0.15 -0.67 0.32-1.34 0.6-2 0.83 0.5 0.19 0.84 0.46 1.02 0.83 0.22-0.43 0.38-0.8 0.49-1.1 0.01-0.05 0.05-0.08 0.09-0.09 0.03-0.01 0.07-0.02 0.12-0.02l2.1 0.77c0.17 0.05 0.29 0.1 0.35 0.15 0.08 0.05 0.11 0.11 0.09 0.18 -0.02 0.09-0.07 0.14-0.16 0.15 -0.23-0.06-0.88 0.27-1.96 1.01 1.02 0.22 1.65 0.57 1.89 1.05 0.11 0.17 0.16 0.36 0.14 0.55 -0.03 0.2-0.11 0.35-0.26 0.46 -0.22 0.14-0.43 0.22-0.63 0.22 -0.25-0.01-0.45-0.08-0.6-0.2 -0.03-0.02-0.12-0.27-0.26-0.75 -0.06 0.02-0.1 0.05-0.12 0.06v1.01c0.45 0.13 0.85 0.34 1.19 0.61 0.62 0.47 0.88 0.94 0.79 1.41 -0.08 0.21-0.2 0.36-0.35 0.44 -0.24 0.11-0.45 0.16-0.65 0.15 -0.51-0.05-0.74-0.31-0.7-0.79 0-0.63-0.09-1.1-0.28-1.4v1.98c0 0.26-0.07 0.42-0.21 0.5 -0.17 0.08-0.45 0.12-0.84 0.13l1.16 0.44c0.26 0.11 0.39 0.23 0.37 0.35 -0.25 0.25-0.47 0.49-0.67 0.72v1.46c0 0.22-0.07 0.37-0.21 0.46 -0.09 0.05-0.29 0.1-0.58 0.15l1.82 0.96c0.2 0.14 0.3 0.32 0.28 0.55 -0.06 0.24-0.26 0.41-0.58 0.5 -0.28 0.09-0.43 0.21-0.44 0.37 0.03 0.55 0.02 0.92-0.03 1.12 -0.23 0.66-0.73 1.09-1.49 1.29 -0.69 0.17-1.71 0.28-3.08 0.32 -0.09-0.03-0.15-0.06-0.16-0.09 -0.05-0.11-0.03-0.29 0.07-0.55 0.03-0.74-0.42-1.36-1.35-1.87 -0.13-0.02-0.18-0.08-0.16-0.17 0.02-0.1 0.08-0.14 0.19-0.13 1.37 0.11 2.12 0.12 2.26 0.04C81.04 48.64 81.11 48.57 81.17 48.47zM71.71 40.24v-0.51c-0.4 0.11-0.63 0.23-0.67 0.35L71.71 40.24zM73.53 37.52c-0.37 0.21-0.77 0.45-1.19 0.7 0.54 0 1.08 0 1.61 0 -0.02-0.07-0.03-0.13-0.05-0.18C73.81 37.85 73.68 37.68 73.53 37.52zM75.7 41.09v-1.97c-0.06 0.13-0.15 0.25-0.26 0.33 -0.22 0.12-0.43 0.18-0.63 0.18 -0.23 0-0.43-0.08-0.58-0.24 -0.14-0.17-0.21-0.4-0.21-0.7 -0.08 0.03-0.14 0.05-0.18 0.09v0.99c0.45 0.16 0.87 0.38 1.26 0.65C75.38 40.65 75.58 40.87 75.7 41.09zM81.99 46.43c-0.27 0-0.47-0.01-0.61-0.02 -0.26-0.06-0.39-0.21-0.39-0.44v-0.46h-6.48l-0.4 1.47h7.29L81.99 46.43zM78.86 34.62H75.95c-0.2 0-0.3-0.09-0.3-0.28 0-0.16 0.1-0.24 0.3-0.24h2.1c0.12-0.21 0.26-0.4 0.42-0.59 0.06-0.05 0.1-0.07 0.12-0.07 0.08 0 0.14 0.02 0.21 0.06 0.95 0.56 1.42 0.85 1.42 0.86 -0.02 0.1-0.03 0.17-0.05 0.22 -0.02 0.03-0.03 0.04-0.05 0.04h-1.19H78.86zM79.05 37.41h-3.01c-0.2 0-0.3-0.09-0.3-0.28 0-0.16 0.1-0.24 0.31-0.24h2.19c0.13-0.21 0.27-0.41 0.42-0.59 0.06-0.05 0.1-0.07 0.12-0.07 0.08 0 0.15 0.02 0.21 0.06 0.94 0.56 1.42 0.85 1.42 0.87 -0.02 0.1-0.03 0.17-0.05 0.22 -0.02 0.02-0.03 0.04-0.05 0.04h-1.19H79.05zM79.05 38.66h-3.01c-0.2 0-0.3-0.09-0.3-0.27 0-0.16 0.1-0.24 0.31-0.24h2.19c0.13-0.21 0.27-0.4 0.42-0.59 0.06-0.05 0.1-0.07 0.12-0.07 0.08 0 0.15 0.02 0.21 0.06 0.94 0.56 1.42 0.85 1.42 0.86 -0.02 0.1-0.03 0.17-0.05 0.22 -0.02 0.03-0.03 0.04-0.05 0.04h-1.19H79.05zM78.21 41.68v-1.76h-0.54v1.77H78.21zM82.52 40.23v-0.53c-0.5 0.19-0.75 0.29-0.75 0.33L82.52 40.23zM84.59 38.04c-0.08-0.17-0.21-0.34-0.39-0.5 -0.31 0.22-0.65 0.45-1.03 0.68 0.65 0 1.14 0 1.47 0C84.62 38.15 84.61 38.09 84.59 38.04z" fill="#FFF"/><path d="M114.52 42.19H103.62c-0.22-0.01-0.33-0.1-0.33-0.26 0-0.17 0.1-0.26 0.3-0.26h9.39c0.11-0.17 0.22-0.32 0.33-0.44 -0.31-0.03-0.51-0.06-0.61-0.11 -0.14-0.1-0.22-0.26-0.23-0.5v-0.13h-5.48v0.19c0 0.21-0.05 0.35-0.14 0.42 -0.09 0.1-0.21 0.15-0.35 0.16 -0.17 0.05-0.54 0.08-1.12 0.09 -0.7 0.02-1.12 0-1.26-0.07 -0.25-0.18-0.35-0.39-0.3-0.6v-2.26c-0.05 0.05-0.08 0.11-0.09 0.19 -0.7 1.15-1.49 2.1-2.38 2.85 -0.08 0.05-0.14 0.1-0.18 0.14 1.38 0.33 2.27 0.85 2.66 1.55 0.17 0.29 0.23 0.61 0.16 0.95 -0.08 0.36-0.26 0.63-0.54 0.81 -0.36 0.22-0.72 0.33-1.1 0.31 -0.88-0.05-1.33-0.5-1.33-1.34 -0.05-0.87-0.19-1.47-0.42-1.8 -0.03 0.01-0.05 0.02-0.05 0.04v8.06c-0.02 0.44-0.14 0.72-0.37 0.85 -0.33 0.18-0.89 0.3-1.68 0.35 -0.71 0.05-1.22 0.01-1.52-0.11 -0.22-0.1-0.32-0.46-0.32-1.08v-5.81c-0.79 0.37-1.5 0.65-2.12 0.85 -0.15 0.05-0.26 0.05-0.33 0 -0.03-0.14 0.23-0.37 0.79-0.66 1.97-1.35 3.64-3.68 5.01-7.01h-5.15c-0.13 0-0.22 0-0.28 0 -0.19 0.01-0.28-0.07-0.28-0.26 0-0.16 0.09-0.24 0.28-0.24 0.08 0 0.17 0 0.28 0h1.87v-3.05c-0.02-0.13 0.01-0.22 0.07-0.27 0.06-0.07 0.22-0.1 0.47-0.09l3 0.09c0.48 0.01 0.79 0.06 0.93 0.14 0.45 0.27 0.37 0.54-0.23 0.79 -0.34 0.16-0.5 0.32-0.49 0.48v1.64l0.63-0.66c0.06-0.07 0.14-0.11 0.23-0.11 0.11-0.01 0.22 0.02 0.33 0.11l2.14 0.98v-2.3c0-0.06 0.03-0.12 0.09-0.17 0.08-0.02 0.17-0.03 0.28-0.02l2.63 0.68h0.05 0.75v-1.3c0-0.07 0.01-0.12 0.02-0.13 0.03-0.04 0.1-0.05 0.21-0.04l1.4 0.04c0.23 0.01 0.38 0.04 0.45 0.07 0.19 0.12 0.15 0.25-0.09 0.37 -0.17 0.08-0.25 0.15-0.23 0.22v0.77h0.68v-1.3c0-0.07 0.01-0.12 0.02-0.13 0.03-0.04 0.1-0.05 0.21-0.04l1.4 0.04c0.23 0.01 0.38 0.04 0.44 0.07 0.19 0.12 0.16 0.25-0.09 0.37 -0.17 0.08-0.25 0.15-0.23 0.22v0.77h0.58l1-0.77c0.09-0.09 0.19-0.13 0.28-0.13 0.11 0 0.24 0.04 0.4 0.13l2.12 0.96c0.64 0.3 0.63 0.57-0.02 0.83 -0.22 0.09-0.32 0.24-0.32 0.48v3.88c-0.02 0.16-0.08 0.28-0.19 0.37 0.7 0.5 1.05 0.81 1.05 0.92 0 0.1-0.02 0.17-0.07 0.22 -0.03 0.03-0.05 0.04-0.07 0.04h-1.91H114.52zM115.04 50.58h-12.53c-0.22-0.01-0.33-0.1-0.33-0.26 0-0.17 0.1-0.26 0.3-0.26h3.84c-0.28-0.21-0.45-0.5-0.51-0.86 -0.14-0.77-0.43-1.33-0.86-1.67 -0.06-0.04-0.09-0.08-0.07-0.13 0-0.06 0.07-0.09 0.21-0.09 1.58-0.14 2.73 0.11 3.42 0.74 0.25 0.27 0.37 0.59 0.37 0.95 -0.03 0.41-0.23 0.76-0.61 1.07h2.28c0.48-1.21 0.75-2.16 0.82-2.83 0.01-0.2 0.1-0.28 0.26-0.24 2.22 0.41 3.41 0.7 3.57 0.88 0.05 0.1 0.04 0.19-0.02 0.27 -0.08 0.1-0.24 0.17-0.49 0.2 -0.26 0.04-0.45 0.1-0.56 0.19 -0.62 0.49-1.28 1-1.98 1.52h1.49c0.3-0.44 0.61-0.88 0.93-1.32 0.09-0.1 0.17-0.14 0.23-0.14 0.11 0 0.22 0.04 0.33 0.13 1.29 1.03 1.93 1.56 1.93 1.6 0 0.1-0.02 0.17-0.07 0.22 -0.03 0.02-0.06 0.04-0.07 0.04h-1.77H115.04zM107.63 46.81c-0.11 0.09-0.24 0.14-0.4 0.18 -0.17 0.05-0.57 0.08-1.19 0.09 -0.74 0.03-1.19 0-1.33-0.09 -0.26-0.17-0.37-0.39-0.33-0.64v-3.73c0-0.07 0.03-0.13 0.09-0.18 0.06-0.03 0.16-0.03 0.3-0.02l2.84 0.74h0.07 4.4l0.84-0.72c0.09-0.1 0.2-0.15 0.3-0.15 0.13 0 0.27 0.04 0.42 0.11l2.05 0.77c0.23 0.09 0.35 0.19 0.35 0.31 -0.23 0.24-0.44 0.48-0.63 0.7v2.25c0 0.21-0.07 0.35-0.21 0.42 -0.14 0.09-0.52 0.15-1.14 0.19 -0.75 0.05-1.26 0.05-1.54 0.02 -0.26-0.06-0.4-0.2-0.4-0.42V46.46h-4.4C107.73 46.62 107.69 46.74 107.63 46.81zM107.63 37.63v-1.84h-0.63v1.84H107.63zM107.63 39.99v-1.84h-0.63v1.84H107.63zM112.15 45.95v-2.28h-4.38v2.28H112.15zM110.05 37.63v-1.84h-0.67v1.84H110.05zM110.05 39.99v-1.84h-0.67v1.84H110.05zM112.47 37.63v-1.84h-0.68v1.84H112.47zM112.47 39.99v-1.84h-0.68v1.84H112.47z" fill="#FFF"/><path d="M129.05 50.03c0 0.4-0.1 0.66-0.28 0.77 -0.18 0.12-0.73 0.2-1.63 0.24 -0.82 0.03-1.33-0.02-1.51-0.13 -0.22-0.13-0.32-0.43-0.32-0.88v-8.4c0-0.11 0.03-0.18 0.09-0.22 0.06-0.04 0.15-0.03 0.26 0.02l3.73 1.21h0.02 1.58l1.17-0.92c0.11-0.09 0.22-0.13 0.33-0.13 0.11 0 0.26 0.04 0.44 0.13l2.38 1.1c0.73 0.34 0.72 0.65-0.02 0.92 -0.25 0.1-0.36 0.28-0.35 0.55v6.05c-0.02 0.18-0.1 0.32-0.26 0.4 -0.22 0.16-0.73 0.25-1.54 0.26 -0.98 0.04-1.56-0.01-1.75-0.13 -0.17-0.11-0.25-0.29-0.25-0.55v-0.77h-2.07V50.03zM132.5 40.61c0 0.4-0.09 0.66-0.28 0.77 -0.19 0.12-0.73 0.2-1.63 0.24 -0.82 0.02-1.33-0.02-1.52-0.13 -0.22-0.13-0.33-0.43-0.33-0.88v-6.86c0-0.11 0.03-0.18 0.09-0.22 0.06-0.04 0.15-0.03 0.26 0.02l3.73 1.21h0.02 6.06l1.4-1.1c0.11-0.08 0.21-0.13 0.3-0.13 0.08 0 0.2 0.05 0.35 0.13l2.24 1.18c0.62 0.32 0.56 0.64-0.19 0.98 -0.22 0.09-0.33 0.24-0.33 0.46v4.69c0.02 0.25-0.05 0.41-0.18 0.5 -0.15 0.13-0.71 0.22-1.65 0.26 -0.79 0.03-1.28 0.01-1.47-0.04 -0.26-0.1-0.4-0.26-0.4-0.49v-0.97h-6.48V40.61zM131.13 49.04v-5.88h-2.07v5.88H131.13zM138.98 39.69v-4.41h-6.48v4.42H138.98zM139.77 50.18c0 0.41-0.09 0.66-0.28 0.77 -0.18 0.12-0.73 0.2-1.63 0.24 -0.82 0.02-1.33-0.02-1.51-0.13 -0.22-0.14-0.33-0.43-0.33-0.88v-8.55c0-0.11 0.03-0.18 0.09-0.22 0.06-0.04 0.15-0.03 0.26 0.02l3.73 1.21h0.02 1.68l1.17-0.92c0.11-0.09 0.22-0.13 0.32-0.13 0.11 0 0.26 0.04 0.45 0.13l2.38 1.1c0.73 0.34 0.72 0.65-0.02 0.92 -0.25 0.1-0.36 0.28-0.35 0.55v6.05c-0.02 0.18-0.1 0.32-0.26 0.4 -0.22 0.16-0.73 0.25-1.54 0.26 -0.98 0.04-1.56-0.01-1.75-0.13 -0.17-0.11-0.26-0.29-0.26-0.55v-0.7h-2.16V50.18zM141.93 49.11v-5.96h-2.16v5.96H141.93z" fill="#FFF"/><path d="M169.37 50.4c-0.02 0.39-0.1 0.63-0.25 0.72 -0.17 0.12-0.69 0.2-1.54 0.24 -0.78 0.02-1.26-0.02-1.45-0.13 -0.2-0.11-0.3-0.39-0.3-0.83V39.64c-0.2 0-0.41-0.02-0.61-0.07 -0.45-0.13-0.78-0.35-0.98-0.66 -0.22-0.39-0.2-0.78 0.05-1.16 -0.56-0.06-0.94-0.35-1.14-0.87 -0.47-0.86-0.84-1.38-1.12-1.56 -0.64 0.86-1.48 1.68-2.52 2.47h1.68c0.22-0.36 0.44-0.7 0.68-1.05 0.06-0.09 0.12-0.13 0.19-0.13 0.08 0 0.15 0.04 0.21 0.11 0.28 0.25 0.52 0.47 0.72 0.67 0.42 0.39 0.61 0.69 0.56 0.88 -0.02 0.02-0.03 0.04-0.05 0.04h-1.26 -0.07 -3.45c-0.53 0.32-1.06 0.61-1.58 0.88l2 0.52h0.05 2.14l0.84-0.72c0.09-0.1 0.19-0.15 0.3-0.15 0.13 0 0.27 0.04 0.42 0.11l2.05 0.77c0.23 0.09 0.35 0.19 0.35 0.31 -0.24 0.25-0.44 0.48-0.63 0.7v4.31c0 0.21-0.07 0.35-0.21 0.42 -0.11 0.06-0.33 0.12-0.67 0.16 0.99 0.99 1.49 1.51 1.49 1.55 0 0.1-0.02 0.17-0.07 0.22 -0.02 0.03-0.03 0.04-0.05 0.04h-1.49 -0.09H159.3v1.84h2.87c0.3-0.44 0.59-0.88 0.88-1.32 0.1-0.1 0.17-0.14 0.24-0.14 0.08 0 0.16 0.04 0.26 0.13 1.03 0.99 1.54 1.52 1.54 1.6 0 0.1-0.02 0.17-0.07 0.22 -0.02 0.02-0.03 0.04-0.05 0.04h-1.49 -0.09H159.3v0.77c0 0.21-0.05 0.35-0.14 0.42 -0.09 0.1-0.21 0.15-0.35 0.16 -0.17 0.05-0.55 0.08-1.12 0.09 -0.7 0.02-1.12 0-1.26-0.07 -0.25-0.18-0.35-0.39-0.3-0.61V39.64c-0.29 0.11-0.58 0.22-0.86 0.33 -0.13 0.02-0.21 0.01-0.26-0.04 -0.02-0.09 0.05-0.17 0.19-0.24 1.82-1.46 2.82-3.38 3.01-5.78 0.01-0.13 0.05-0.23 0.09-0.28 0.06-0.04 0.17-0.05 0.33-0.04l4.24 0.39c0.39 0.03 0.58 0.16 0.58 0.39 -0.02 0.12-0.1 0.23-0.26 0.31 0.93 0.16 1.63 0.45 2.1 0.86 0.39 0.33 0.55 0.78 0.49 1.35 0.75-0.44 1.05-0.93 0.91-1.45 -0.02-0.09 0.01-0.15 0.07-0.18 0.06-0.04 0.14-0.02 0.23 0.06 0.33 0.27 0.57 0.62 0.72 1.07h1.09v-2.32c-0.02-0.13 0.01-0.22 0.07-0.28 0.06-0.07 0.22-0.1 0.47-0.09l3.01 0.09c0.48 0.01 0.79 0.06 0.93 0.15 0.45 0.27 0.37 0.53-0.23 0.79 -0.34 0.16-0.51 0.32-0.49 0.48v1.18h0.7l1.19-1.03c0.08-0.06 0.16-0.09 0.26-0.09 0.1 0 0.2 0.04 0.31 0.11l2 1.29c0.4 0.27 0.6 0.55 0.58 0.85 -0.08 0.7-0.7 0.88-1.86 0.55 -0.82-0.27-1.62-0.24-2.38 0.09 0.05 0.01 0.08 0.03 0.09 0.04l2.24 1.03c0.31 0.15 0.47 0.28 0.47 0.41 0 0.19-0.16 0.35-0.49 0.46 -0.22 0.1-0.32 0.28-0.32 0.53v2.98c0 0.17-0.08 0.3-0.24 0.39 -0.22 0.15-0.71 0.23-1.47 0.24 -0.9 0.02-1.44-0.02-1.63-0.13 -0.16-0.12-0.24-0.3-0.26-0.54v-0.33h-2.38v2.13h2.45l1.1-0.84c0.09-0.08 0.19-0.13 0.3-0.13 0.12 0 0.26 0.04 0.42 0.13l2.24 1.03c0.31 0.14 0.47 0.28 0.47 0.41 0 0.2-0.17 0.35-0.49 0.46 -0.22 0.1-0.32 0.28-0.32 0.54v3.79c0 0.17-0.08 0.3-0.23 0.39 -0.22 0.14-0.71 0.23-1.47 0.24 -0.9 0.02-1.44-0.02-1.63-0.13 -0.16-0.12-0.24-0.3-0.26-0.53v-0.85h-2.56V50.4zM159.3 42.12h2.07v-1.91H159.3V42.12zM159.3 44.48h2.07v-1.84H159.3V44.48zM163.17 45.65c-0.69 0.01-1.15 0.01-1.4 0 -0.26-0.06-0.4-0.2-0.4-0.42v-0.24H159.3v1.91h3.05C162.6 46.47 162.87 46.06 163.17 45.65zM173.23 36.9h-5.38c0.11 0.55 0.07 1.05-0.12 1.51l1.89 0.63h0.02 1.98l1.1-0.85C172.92 37.88 173.09 37.45 173.23 36.9zM171.74 42.71v-3.16h-2.38v3.16H171.74zM171.93 49.33v-3.46h-2.56v3.46H171.93z" fill="#FFF"/></svg>